<mxfile host="app.diagrams.net" modified="2024-04-11T05:50:01.399Z" agent="Mozilla/5.0 (X11; Linux x86_64) AppleWebKit/537.36 (KHTML, like Gecko) Chrome/123.0.0.0 Safari/537.36" etag="BRrWgrCSoy1T2pn1CEoB" version="24.2.3" type="device">
  <diagram name="Page-1" id="Qk240AkLZeHnWwK9gQ5-">
    <mxGraphModel dx="794" dy="445" grid="1" gridSize="10" guides="1" tooltips="1" connect="1" arrows="1" fold="1" page="1" pageScale="1" pageWidth="827" pageHeight="1169" math="0" shadow="0">
      <root>
        <mxCell id="0" />
        <mxCell id="1" parent="0" />
        <mxCell id="5FitpY5BciQKdeY5UXek-30" value="Collector" style="rounded=1;whiteSpace=wrap;html=1;fillColor=#cce5ff;strokeColor=#36393d;" vertex="1" parent="1">
          <mxGeometry x="590" y="790" width="120" height="60" as="geometry" />
        </mxCell>
        <mxCell id="5FitpY5BciQKdeY5UXek-31" value="GoThroughFiles" style="rounded=1;whiteSpace=wrap;html=1;fillColor=#eeeeee;strokeColor=#36393d;" vertex="1" parent="1">
          <mxGeometry x="44" y="755" width="120" height="60" as="geometry" />
        </mxCell>
        <mxCell id="5FitpY5BciQKdeY5UXek-32" value="" style="curved=1;endArrow=classic;html=1;rounded=0;exitX=0.5;exitY=1;exitDx=0;exitDy=0;entryX=0.5;entryY=1;entryDx=0;entryDy=0;strokeWidth=3;strokeColor=#97D077;" edge="1" parent="1" source="5FitpY5BciQKdeY5UXek-30" target="5FitpY5BciQKdeY5UXek-31">
          <mxGeometry width="50" height="50" relative="1" as="geometry">
            <mxPoint x="374" y="755" as="sourcePoint" />
            <mxPoint x="424" y="705" as="targetPoint" />
            <Array as="points">
              <mxPoint x="594" y="895" />
              <mxPoint x="254" y="875" />
            </Array>
          </mxGeometry>
        </mxCell>
        <mxCell id="5FitpY5BciQKdeY5UXek-33" value="result&lt;br&gt;chan bool" style="edgeLabel;html=1;align=center;verticalAlign=middle;resizable=0;points=[];" vertex="1" connectable="0" parent="5FitpY5BciQKdeY5UXek-32">
          <mxGeometry x="-0.0393" y="2" relative="1" as="geometry">
            <mxPoint x="-4" y="18" as="offset" />
          </mxGeometry>
        </mxCell>
        <mxCell id="5FitpY5BciQKdeY5UXek-51" value="" style="rounded=0;whiteSpace=wrap;html=1;fillColor=none;" vertex="1" parent="1">
          <mxGeometry x="259.5" y="600" width="280.5" height="190" as="geometry" />
        </mxCell>
        <mxCell id="5FitpY5BciQKdeY5UXek-54" value="" style="html=1;shadow=0;dashed=0;align=center;verticalAlign=middle;shape=mxgraph.arrows2.bendArrow;dy=36.1;dx=27.4;notch=0;arrowHead=72.2;rounded=1;rotation=90;strokeColor=#97D077;fillColor=none;strokeWidth=4;" vertex="1" parent="1">
          <mxGeometry x="542" y="660" width="130" height="130" as="geometry" />
        </mxCell>
        <mxCell id="5FitpY5BciQKdeY5UXek-37" value="" style="endArrow=classic;html=1;rounded=0;exitX=1;exitY=0.5;exitDx=0;exitDy=0;entryX=0;entryY=0;entryDx=0;entryDy=0;dashed=1;" edge="1" parent="1" source="5FitpY5BciQKdeY5UXek-31" target="5FitpY5BciQKdeY5UXek-42">
          <mxGeometry width="50" height="50" relative="1" as="geometry">
            <mxPoint x="364" y="695" as="sourcePoint" />
            <mxPoint x="414" y="645" as="targetPoint" />
          </mxGeometry>
        </mxCell>
        <mxCell id="5FitpY5BciQKdeY5UXek-38" value="start" style="edgeLabel;html=1;align=center;verticalAlign=middle;resizable=0;points=[];" vertex="1" connectable="0" parent="5FitpY5BciQKdeY5UXek-37">
          <mxGeometry x="0.4878" relative="1" as="geometry">
            <mxPoint x="-55" y="-5" as="offset" />
          </mxGeometry>
        </mxCell>
        <mxCell id="5FitpY5BciQKdeY5UXek-56" value="filesOut&lt;br&gt;chan chan typedMsg [fileLimit]" style="text;html=1;align=center;verticalAlign=middle;resizable=0;points=[];autosize=1;strokeColor=none;fillColor=none;rotation=15;" vertex="1" parent="1">
          <mxGeometry x="575" y="630" width="180" height="40" as="geometry" />
        </mxCell>
        <mxCell id="5FitpY5BciQKdeY5UXek-40" value="" style="rounded=1;whiteSpace=wrap;html=1;fillColor=#ffcccc;strokeColor=#36393d;" vertex="1" parent="1">
          <mxGeometry x="305.5" y="630" width="120" height="60" as="geometry" />
        </mxCell>
        <mxCell id="5FitpY5BciQKdeY5UXek-67" value="" style="ellipse;whiteSpace=wrap;html=1;aspect=fixed;strokeColor=none;" vertex="1" parent="1">
          <mxGeometry x="500" y="661" width="70" height="70" as="geometry" />
        </mxCell>
        <mxCell id="5FitpY5BciQKdeY5UXek-41" value="" style="rounded=1;whiteSpace=wrap;html=1;fillColor=#ffcccc;strokeColor=#36393d;" vertex="1" parent="1">
          <mxGeometry x="339.75" y="650" width="120" height="60" as="geometry" />
        </mxCell>
        <mxCell id="5FitpY5BciQKdeY5UXek-42" value="FileProcessor &lt;br&gt;worker" style="rounded=1;whiteSpace=wrap;html=1;fillColor=#ffcccc;strokeColor=#36393d;" vertex="1" parent="1">
          <mxGeometry x="294" y="680" width="120" height="60" as="geometry" />
        </mxCell>
        <mxCell id="5FitpY5BciQKdeY5UXek-43" value="" style="curved=1;endArrow=classic;html=1;rounded=0;exitX=0.998;exitY=0.135;exitDx=0;exitDy=0;entryX=0.25;entryY=0;entryDx=0;entryDy=0;exitPerimeter=0;strokeColor=#97D077;strokeWidth=4;" edge="1" parent="1" source="5FitpY5BciQKdeY5UXek-51" target="5FitpY5BciQKdeY5UXek-51">
          <mxGeometry width="50" height="50" relative="1" as="geometry">
            <mxPoint x="500" y="630" as="sourcePoint" />
            <mxPoint x="550" y="580" as="targetPoint" />
            <Array as="points">
              <mxPoint x="580" y="560" />
              <mxPoint x="360" y="550" />
            </Array>
          </mxGeometry>
        </mxCell>
        <mxCell id="5FitpY5BciQKdeY5UXek-44" value="workersCh&lt;br&gt;chan bool [workerLimit]" style="edgeLabel;html=1;align=center;verticalAlign=middle;resizable=0;points=[];" vertex="1" connectable="0" parent="5FitpY5BciQKdeY5UXek-43">
          <mxGeometry x="0.1929" y="5" relative="1" as="geometry">
            <mxPoint x="5" y="-20" as="offset" />
          </mxGeometry>
        </mxCell>
        <mxCell id="5FitpY5BciQKdeY5UXek-60" value="" style="endArrow=classic;html=1;rounded=0;strokeWidth=3;strokeColor=#97D077;" edge="1" parent="1">
          <mxGeometry width="50" height="50" relative="1" as="geometry">
            <mxPoint x="450" y="731" as="sourcePoint" />
            <mxPoint x="490" y="711" as="targetPoint" />
          </mxGeometry>
        </mxCell>
        <mxCell id="5FitpY5BciQKdeY5UXek-61" value="currentFileOut&lt;div&gt;chan typedMsg [lineLimit]&lt;/div&gt;" style="edgeLabel;html=1;align=center;verticalAlign=middle;resizable=0;points=[];" vertex="1" connectable="0" parent="5FitpY5BciQKdeY5UXek-60">
          <mxGeometry x="0.3533" y="-3" relative="1" as="geometry">
            <mxPoint x="-8" y="31" as="offset" />
          </mxGeometry>
        </mxCell>
        <mxCell id="5FitpY5BciQKdeY5UXek-72" value="" style="endArrow=classic;html=1;rounded=0;strokeWidth=3;strokeColor=#97D077;" edge="1" parent="1">
          <mxGeometry width="50" height="50" relative="1" as="geometry">
            <mxPoint x="570" y="690" as="sourcePoint" />
            <mxPoint x="610" y="670" as="targetPoint" />
          </mxGeometry>
        </mxCell>
        <mxCell id="5FitpY5BciQKdeY5UXek-73" value="currentFileOut&lt;div&gt;chan typedMsg [lineLimit]&lt;/div&gt;" style="edgeLabel;html=1;align=center;verticalAlign=middle;resizable=0;points=[];" vertex="1" connectable="0" parent="5FitpY5BciQKdeY5UXek-72">
          <mxGeometry x="0.3533" y="-3" relative="1" as="geometry">
            <mxPoint x="-8" y="31" as="offset" />
          </mxGeometry>
        </mxCell>
      </root>
    </mxGraphModel>
  </diagram>
</mxfile>
